<?xml version="1.0" standalone="no"?>
<!DOCTYPE svg PUBLIC "-//W3C//DTD SVG 20010904//EN"
 "http://www.w3.org/TR/2001/REC-SVG-20010904/DTD/svg10.dtd">
<svg version="1.0" xmlns="http://www.w3.org/2000/svg"
 width="1200.000000pt" height="1200.000000pt" viewBox="0 0 1200.000000 1200.000000"
 preserveAspectRatio="xMidYMid meet">

<g transform="translate(0.000000,1200.000000) scale(0.100000,-0.100000)"
fill="#000000" stroke="none">
<path d="M11490 11829 c-637 -347 -1946 -1837 -3849 -4378 -654 -874 -1492
-2032 -2071 -2864 -91 -130 -167 -237 -170 -237 -3 0 -390 620 -860 1378
l-854 1379 -733 -441 c-403 -243 -733 -443 -733 -446 1 -3 582 -898 1293
-1990 l1293 -1985 579 -2 580 -2 89 127 c610 866 1769 2427 2565 3452 1273
1640 2322 2843 2899 3324 l72 61 0 1332 c0 1060 -3 1333 -12 1333 -7 0 -47
-19 -88 -41z"/>
<path d="M2285 10100 c-255 -6 -317 -10 -409 -29 -370 -76 -687 -245 -949
-507 -283 -282 -458 -626 -523 -1032 -15 -87 -16 -433 -15 -3387 1 -2151 6
-3330 12 -3405 67 -751 593 -1371 1319 -1554 223 -57 69 -54 3660 -57 3046 -2
3324 -1 3420 15 407 64 753 240 1040 528 272 274 437 595 513 1003 20 108 20
143 24 2093 l4 1982 -347 0 -347 0 4 -1962 c4 -1876 3 -1967 -14 -2043 -114
-497 -483 -850 -972 -931 -92 -15 -366 -16 -3345 -11 -2885 5 -3255 7 -3332
21 -435 79 -778 375 -919 796 -65 196 -61 -37 -54 3505 7 3502 4 3313 65 3495
58 174 139 308 269 443 169 175 329 269 576 335 l100 27 3008 3 3007 2 0 340
0 340 -2747 -2 c-1512 -1 -2883 -5 -3048 -8z"/>
</g>
</svg>
